
        <svg xmlns="http://www.w3.org/2000/svg" xmlns:xlink="http://www.w3.org/1999/xlink" version="1.1" width="3162.111047853983" 
        height="1026.8980669507332" viewBox="0 0 3162.111047853983 1026.8980669507332">
			
			<g transform="scale(8.10555239269914) translate(10, 10)">
				<defs id="SvgjsDefs1757"></defs><g id="SvgjsG1758" featureKey="HKaMnE-0" transform="matrix(1.1015546421937221,0,0,1.1015546421937221,-4.520947992595076,2.0430041101282503)" fill="#3dd2cc"><g xmlns="http://www.w3.org/2000/svg"><path fill="none" d="M31.37,85.71c-0.61,0.87-0.85,1.93-0.66,2.98C31.04,90.61,32.7,92,34.64,92c0.23,0,0.47-0.02,0.7-0.06   c1.05-0.19,1.97-0.77,2.58-1.65c0.61-0.87,0.85-1.93,0.66-2.99c-0.33-1.91-1.99-3.3-3.93-3.3c-0.23,0-0.47,0.02-0.7,0.06   C32.9,84.25,31.98,84.83,31.37,85.71z"></path><path fill="none" d="M70.439,40.197c-0.043,0.782-0.105,1.543-0.191,2.278C72.612,42.343,74.5,40.396,74.5,38   c0-1.786-1.055-3.309-2.568-4.029c-0.398,2.162-0.903,4.248-1.451,6.167C70.474,40.162,70.45,40.174,70.439,40.197z"></path><path fill="none" d="M29.531,40.155c-0.004-0.012-0.013-0.021-0.016-0.034c-0.543-2.17-0.966-4.236-1.29-6.215   C26.63,34.594,25.5,36.154,25.5,38c0,2.396,1.888,4.343,4.252,4.475c-0.085-0.725-0.147-1.476-0.19-2.247   C29.549,40.204,29.54,40.181,29.531,40.155z"></path><path fill="none" d="M69.5,39.906l0.019-0.043l0.981-3.865c0.172-0.77,0.332-1.553,0.477-2.348   c0.061-0.333,0.118-0.666,0.173-1.002c1.144-7.012,0.972-14.678-3.118-20.102C64.505,7.871,58.438,5.5,50,5.5   c-8.25,0-14.2,2.263-17.686,6.727c-3.509,4.494-4.6,11.338-3.282,20.387c0.048,0.331,0.1,0.665,0.155,1.001   c0.096,0.592,0.197,1.189,0.313,1.8c0.085,0.447,0.183,0.905,0.278,1.362c0.167-0.922,0.413-1.74,0.722-2.477   c2.215-5.302,7.848-6.17,13.752-7.055c3.607-0.541,7.337-1.1,10.524-2.693c4.492-2.246,5.833-5.507,5.986-8.354   c0.021-0.384,0.02-0.76,0.002-1.126c-0.128-2.62-1.122-4.67-1.212-4.849c-0.124-0.247-0.023-0.547,0.224-0.671   c0.247-0.123,0.547-0.023,0.671,0.224c0.053,0.106,1.303,2.643,1.303,5.849c0,0.018-0.001,0.037-0.001,0.054   c-0.002,0.362-0.019,0.74-0.06,1.13c-0.294,2.83-1.753,6.281-6.465,8.638c-3.329,1.664-7.139,2.235-10.823,2.787   c-7.246,1.086-13.514,2.052-13.867,10.981c0.356,13.057,7.288,19.112,12.998,21.651c0.313,0.139,0.625,0.275,0.929,0.394   c0.327,0.128,0.645,0.24,0.959,0.345c0.305,0.103,0.6,0.192,0.89,0.275C47.855,62.323,49.163,62.5,50,62.5   c0.758,0,1.899-0.143,3.254-0.498c0.424-0.111,0.867-0.241,1.327-0.396c0.314-0.105,0.632-0.218,0.959-0.345   c0.312-0.122,0.632-0.261,0.954-0.404C62.097,58.356,68.924,52.47,69.5,39.906z"></path><path fill="none" d="M56.606,63.038l0.077,0.129c0.152,0.029,0.301,0.068,0.453,0.099C56.96,63.189,56.788,63.111,56.606,63.038z"></path><path fill="none" d="M55.381,62.941l-0.261-0.435c-0.021-0.006-0.043-0.012-0.064-0.018c-0.303,0.105-0.599,0.199-0.888,0.286   C52.418,63.296,50.933,63.5,50,63.5c-0.934,0-2.423-0.204-4.177-0.729c-0.301-0.09-0.608-0.187-0.923-0.297l-0.26,0.433   l-0.663,1.104l-2.193,3.656c-1.476,2.459-1.751,5.414-0.756,8.104s3.127,4.754,5.848,5.661l0.149,0.049   c1.924,0.642,4.028,0.641,5.95,0l0.151-0.05c2.72-0.907,4.852-2.97,5.847-5.661s0.72-5.645-0.756-8.104l-2.168-3.614L55.381,62.941   z"></path><path d="M63.727,65.245c-1.548-1.518-3.488-2.872-5.953-3.908c5.118-2.549,10.84-7.775,12.344-17.843   C73.096,43.43,75.5,40.993,75.5,38c0-2.28-1.405-4.219-3.386-5.051c1.202-7.27,1.032-15.283-3.285-21.006   C65.104,7.004,58.769,4.5,50,4.5c-8.574,0-14.79,2.393-18.474,7.111c-3.696,4.733-4.851,11.873-3.466,21.27   C25.988,33.67,24.5,35.654,24.5,38c0,2.993,2.404,5.43,5.382,5.494c1.523,10.194,7.369,15.424,12.535,17.937   c-1.606,0.876-2.962,1.888-4.085,2.987C22.956,69.508,11.388,83.793,9.551,95h1.004c1.768-10.465,12.266-23.651,26.378-29.029   c-1.721,2.141-2.77,4.452-3.393,6.539c-1.25,4.2-1.05,8.11-0.87,9.83c-1.19,0.41-2.21,1.18-2.94,2.22   c-0.92,1.31-1.27,2.9-0.99,4.48c0.5,2.87,2.99,4.96,5.9,4.96c0.35,0,0.7-0.03,1.05-0.09c1.58-0.28,2.95-1.16,3.87-2.47   s1.27-2.9,0.99-4.48c-0.5-2.88-2.99-4.96-5.9-4.96c-0.16-1.6-0.31-5.16,0.81-8.92c1.058-3.554,2.949-6.368,5.637-8.44   c0.515-0.132,1.033-0.256,1.556-0.366l-1.727,2.878c-1.633,2.721-1.938,5.989-0.837,8.965s3.459,5.259,6.471,6.263l0.149,0.049   c1.063,0.355,2.17,0.535,3.291,0.535s2.228-0.18,3.29-0.534l0.151-0.05c3.011-1.003,5.369-3.286,6.47-6.263   s0.796-6.244-0.837-8.965l-1.697-2.829c1.051,0.229,2.086,0.507,3.106,0.823c3.622,2.616,5.404,6.147,6.257,9.344   c-1.46,0.13-2.87,0.64-4.1,1.5c-1.84,1.29-3.07,3.23-3.47,5.44l-0.89,5.08c-0.94,0.23-1.69,1-1.86,1.99   c-0.12,0.65,0.03,1.31,0.41,1.86c0.38,0.54,0.95,0.9,1.61,1.02c0.14,0.03,0.29,0.04,0.43,0.04c1.21,0,2.24-0.87,2.45-2.06   c0.11-0.65-0.03-1.31-0.42-1.86c-0.18-0.26-0.4-0.47-0.66-0.64l0.9-5.08c0.3-1.69,1.24-3.17,2.65-4.15   c1.41-0.99,3.12-1.37,4.81-1.07s3.17,1.24,4.15,2.65c0.99,1.41,1.37,3.11,1.07,4.81l-0.89,5.07c-0.95,0.23-1.69,1-1.87,1.99   c-0.23,1.35,0.67,2.64,2.02,2.88c0.15,0.03,0.29,0.04,0.43,0.04c1.21,0,2.24-0.86,2.45-2.06c0.18-0.99-0.27-1.96-1.06-2.5   l0.89-5.08c0.39-2.21-0.11-4.45-1.4-6.3c-1.29-1.85-3.22-3.08-5.44-3.47c-0.04-0.01-0.07-0.01-0.11-0.02   c-0.591-2.469-1.665-5.158-3.555-7.588C78.162,72.871,87.571,85.144,89.236,95h1.004C88.494,84.352,77.961,70.923,63.727,65.245z    M34.65,84c1.94,0,3.6,1.39,3.93,3.3c0.19,1.06-0.05,2.12-0.66,2.99c-0.61,0.88-1.53,1.46-2.58,1.65c-0.23,0.04-0.47,0.06-0.7,0.06   c-1.94,0-3.6-1.39-3.93-3.31c-0.19-1.05,0.05-2.11,0.66-2.98c0.61-0.88,1.53-1.46,2.58-1.65C34.18,84.02,34.42,84,34.65,84z    M74.5,38c0,2.396-1.888,4.343-4.252,4.475c0.086-0.734,0.148-1.496,0.191-2.278c0.011-0.023,0.034-0.035,0.042-0.06   c0.548-1.919,1.053-4.005,1.451-6.167C73.445,34.691,74.5,36.214,74.5,38z M25.5,38c0-1.846,1.13-3.406,2.725-4.093   c0.324,1.978,0.748,4.044,1.29,6.215c0.003,0.013,0.012,0.022,0.016,0.034c0.008,0.026,0.018,0.049,0.03,0.073   c0.043,0.771,0.105,1.522,0.19,2.247C27.388,42.343,25.5,40.396,25.5,38z M58.217,67.667c1.476,2.459,1.751,5.414,0.756,8.104   s-3.127,4.754-5.847,5.661l-0.151,0.05c-1.922,0.641-4.026,0.641-5.95,0l-0.149-0.049c-2.721-0.907-4.853-2.971-5.848-5.661   s-0.72-5.645,0.756-8.104l2.193-3.656l0.663-1.104l0.26-0.433c0.316,0.11,0.622,0.207,0.923,0.297   C47.577,63.296,49.066,63.5,50,63.5c0.933,0,2.418-0.204,4.168-0.727c0.29-0.086,0.585-0.181,0.888-0.286   c0.021,0.006,0.043,0.012,0.064,0.018l0.261,0.435l0.667,1.112L58.217,67.667z M56.606,63.038c0.182,0.073,0.354,0.151,0.53,0.227   c-0.151-0.031-0.301-0.07-0.453-0.099L56.606,63.038z M56.493,60.857c-0.321,0.143-0.642,0.282-0.954,0.404   c-0.327,0.128-0.645,0.24-0.959,0.345c-0.46,0.155-0.904,0.285-1.327,0.396C51.899,62.357,50.758,62.5,50,62.5   c-0.837,0-2.145-0.177-3.69-0.619c-0.29-0.083-0.585-0.172-0.89-0.275c-0.314-0.105-0.632-0.218-0.959-0.345   c-0.304-0.119-0.616-0.255-0.929-0.394c-5.71-2.539-12.642-8.594-12.998-21.651c0.353-8.929,6.621-9.896,13.867-10.981   c3.684-0.552,7.494-1.123,10.823-2.787c4.712-2.356,6.172-5.808,6.465-8.638c0.041-0.39,0.058-0.768,0.06-1.13   c0-0.018,0.001-0.037,0.001-0.054c0-3.206-1.25-5.742-1.303-5.849c-0.124-0.247-0.424-0.346-0.671-0.224   c-0.247,0.124-0.347,0.424-0.224,0.671c0.09,0.18,1.083,2.23,1.212,4.849c0.018,0.366,0.019,0.742-0.002,1.126   c-0.153,2.846-1.494,6.108-5.986,8.354c-3.187,1.593-6.917,2.152-10.524,2.693C38.348,28.13,32.715,28.998,30.5,34.3   c-0.308,0.738-0.555,1.555-0.722,2.477c-0.096-0.457-0.193-0.915-0.278-1.362c-0.116-0.611-0.217-1.207-0.313-1.8   c-0.055-0.337-0.107-0.671-0.155-1.001c-1.318-9.049-0.226-15.893,3.282-20.387C35.8,7.763,41.75,5.5,50,5.5   c8.438,0,14.505,2.371,18.031,7.045c4.091,5.424,4.262,13.09,3.118,20.102c-0.055,0.336-0.113,0.669-0.173,1.002   c-0.145,0.795-0.304,1.578-0.477,2.348l-0.981,3.865L69.5,39.906C68.924,52.47,62.097,58.356,56.493,60.857z"></path></g></g><g id="SvgjsG1759" featureKey="J3GnXt-0" transform="matrix(2.907111222572441,0,0,2.907111222572441,104.63933316614134,23.06908727981909)" fill="#3dd2cc"><path d="M6.54 5.84 c1.5067 0 2.8134 0.31 3.92 0.93 s1.9533 1.47 2.54 2.55 s0.88 2.28 0.88 3.6 s-0.32666 2.5234 -0.98 3.61 s-1.5667 1.9367 -2.74 2.55 s-2.48 0.92 -3.92 0.92 l-4.74 0 l0 -14.16 l5.04 0 z M5.94 18.2 c1.08 0 2.07 -0.21002 2.97 -0.63002 s1.6133 -1.0233 2.14 -1.81 s0.79 -1.7333 0.79 -2.84 c0 -1.6 -0.49666 -2.88 -1.49 -3.84 s-2.31 -1.44 -3.95 -1.44 l-2.98 0 l0 10.56 l2.52 0 z M23.14 5.48 c2.1066 0 3.8634 0.69998 5.27 2.1 s2.11 3.18 2.11 5.34 c0 1.3733 -0.31334 2.63 -0.94 3.77 s-1.51 2.0366 -2.65 2.69 s-2.4034 0.98 -3.79 0.98 c-1.3733 0 -2.6266 -0.32334 -3.76 -0.97 s-2.02 -1.54 -2.66 -2.68 s-0.96 -2.4034 -0.96 -3.79 c0 -2.1066 0.69 -3.8734 2.07 -5.3 s3.15 -2.14 5.31 -2.14 z M17.8 12.92 c0 1.6 0.49998 2.94 1.5 4.02 s2.28 1.62 3.84 1.62 c1.5333 0 2.8066 -0.53334 3.82 -1.6 s1.52 -2.4134 1.52 -4.04 c0 -1.6133 -0.5 -2.9566 -1.5 -4.03 s-2.2866 -1.61 -3.86 -1.61 c-1.52 0 -2.7866 0.53334 -3.8 1.6 s-1.52 2.4134 -1.52 4.04 z M39.78 5.48 c1 0 1.9367 0.18664 2.81 0.55998 s1.59 0.92 2.15 1.64 l-1.6 1.22 c-0.86666 -1.08 -2.0066 -1.62 -3.42 -1.62 c-1.5333 0 -2.7966 0.54666 -3.79 1.64 s-1.49 2.4666 -1.49 4.12 c0 1.6 0.49 2.92 1.47 3.96 s2.25 1.56 3.81 1.56 s2.7934 -0.63334 3.7 -1.9 l1.62 1.22 c-0.56 0.74666 -1.3067 1.3467 -2.24 1.8 s-1.9733 0.68 -3.12 0.68 c-1.36 0 -2.5934 -0.33 -3.7 -0.99 s-1.98 -1.5667 -2.62 -2.72 s-0.96 -2.3634 -0.96 -3.63 c0 -2.1866 0.68666 -3.99 2.06 -5.41 s3.1466 -2.13 5.32 -2.13 z M51.66 10.28 c1.3733 0 2.36 0.58666 2.96 1.76 c0.30666 -0.56 0.72666 -0.99334 1.26 -1.3 s1.1133 -0.46 1.74 -0.46 c2.3866 0 3.5866 1.3733 3.6 4.12 l0 5.6 l-1.8 0 l0 -5.38 c0 -0.93334 -0.16666 -1.61 -0.5 -2.03 s-0.84668 -0.63 -1.54 -0.63 c-0.81334 0 -1.42 0.24666 -1.82 0.74 s-0.6 1.1733 -0.6 2.04 l0 5.26 l-1.8 0 l0 -5.1 c0 -1.12 -0.16 -1.89 -0.48 -2.31 s-0.82666 -0.63 -1.52 -0.63 c-0.74666 0 -1.3433 0.28666 -1.79 0.86 s-0.67 1.3 -0.67 2.18 l0 5 l-1.8 0 l0 -9.48 l1.68 0 l0 1.48 l0.04 0 c0.2 -0.46666 0.59666 -0.87 1.19 -1.21 s1.21 -0.51 1.85 -0.51 z M68.28 10.28 c1.4533 0 2.5834 0.45664 3.39 1.37 s1.2167 2.17 1.23 3.77 l0 0.5 l-7.6 0 c0 0.77334 0.31 1.4233 0.93 1.95 s1.3767 0.79666 2.27 0.81 c0.98666 0 1.8533 -0.47334 2.6 -1.42 l1.36 1.04 c-1.0133 1.2933 -2.4134 1.94 -4.2 1.94 c-1.4533 0 -2.6234 -0.46334 -3.51 -1.39 s-1.3433 -2.1234 -1.37 -3.59 c0 -1.4133 0.45666 -2.59 1.37 -3.53 s2.09 -1.4233 3.53 -1.45 z M70.98 14.48 c-0.02666 -0.89334 -0.28 -1.5767 -0.76 -2.05 s-1.14 -0.71 -1.98 -0.71 c-0.56 0 -1.0633 0.13666 -1.51 0.41 s-0.79666 0.62668 -1.05 1.06 s-0.38 0.86334 -0.38 1.29 l5.68 0 z M79.4 10.28 c1.4533 0 2.5834 0.45664 3.39 1.37 s1.2167 2.17 1.23 3.77 l0 0.5 l-7.6 0 c0 0.77334 0.31 1.4233 0.93 1.95 s1.3767 0.79666 2.27 0.81 c0.98666 0 1.8533 -0.47334 2.6 -1.42 l1.36 1.04 c-1.0133 1.2933 -2.4134 1.94 -4.2 1.94 c-1.4533 0 -2.6234 -0.46334 -3.51 -1.39 s-1.3433 -2.1234 -1.37 -3.59 c0 -1.4133 0.45666 -2.59 1.37 -3.53 s2.09 -1.4233 3.53 -1.45 z M82.10000000000001 14.48 c-0.02666 -0.89334 -0.28 -1.5767 -0.76 -2.05 s-1.14 -0.71 -1.98 -0.71 c-0.56 0 -1.0633 0.13666 -1.51 0.41 s-0.79666 0.62668 -1.05 1.06 s-0.38 0.86334 -0.38 1.29 l5.68 0 z M88.68 7.859999999999999 l-0.000019531 2.66 l2.58 0 l0 1.56 l-2.58 0 l0 4.56 c0 0.61334 0.08666 1.0867 0.26 1.42 s0.54 0.5 1.1 0.5 c0.53334 0 0.96 -0.09334 1.28 -0.28 l0 1.64 c-0.34666 0.18666 -0.89332 0.29332 -1.64 0.31998 c-0.72 0 -1.2767 -0.11 -1.67 -0.33 s-0.68 -0.52666 -0.86 -0.92 s-0.27 -1.01 -0.27 -1.85 l0 -5.06 l-2.08 0 l0 -1.56 l2.08 0 l0 -2.66 l1.8 0 z"></path></g>
			</g>
		</svg>
	